<svg id="Camada_1" data-name="Camada 1" xmlns="http://www.w3.org/2000/svg" xmlns:xlink="http://www.w3.org/1999/xlink" viewBox="0 0 871.55 841.85"><defs><linearGradient id="Gradiente_sem_nome_14" x1="719.34" y1="212.35" x2="337.42" y2="873.87" gradientUnits="userSpaceOnUse"><stop offset="0" stop-color="#75ff84"/><stop offset="1" stop-color="#6150ff"/></linearGradient></defs><g id="Simbolo"><path d="M914.06,373.68l-323.48-235a102.55,102.55,0,0,0-120.59,0l-323.47,235a102.59,102.59,0,0,0-37.27,114.69l87.08,268a91.71,91.71,0,1,0,177.21-46.12c-.27-.82-.62-1.58-.91-2.39-1.09-4.26-2.48-9.32-4.2-15.57l-63.91-196.7a32.49,32.49,0,0,1,11.8-36.33L511.19,317.68a32.49,32.49,0,0,1,38.19,0L744.26,459.26a32.51,32.51,0,0,1,11.8,36.33L681.62,724.67a32.48,32.48,0,0,1-30.9,22.45H488s-.1.09-.15.14c-.89,0-1.76-.14-2.66-.14a96.2,96.2,0,0,0-.3,192.39H730.21a102.58,102.58,0,0,0,97.56-70.88L951.32,488.37A102.58,102.58,0,0,0,914.06,373.68Z" transform="translate(-104.22 -119.07)" style="fill:url(#Gradiente_sem_nome_14)"/><text transform="translate(353.04 795.38)" style="font-size:179.41860961914062px;fill:#232328;font-family:Montserrat-Black, Montserrat;font-weight:800">BE<tspan x="259.44" y="0" style="letter-spacing:-0.03498713853220232em">T</tspan><tspan x="370.5" y="0">A</tspan></text></g></svg>